<!DOCTYPE svg PUBLIC "-//W3C//DTD SVG 20010904//EN" "http://www.w3.org/TR/2001/REC-SVG-20010904/DTD/svg10.dtd">
<svg version="1.0" xmlns="http://www.w3.org/2000/svg" width="220px" height="55px" viewBox="0 0 2200 550" preserveAspectRatio="xMidYMid meet">
<g id="layer101" fill="#229954" stroke="none">
 <path d="M525 518 c-35 -20 -44 -41 -45 -100 0 -88 39 -118 151 -118 60 0 66 -4 50 -30 -10 -15 -55 -17 -116 -6 -30 6 -33 4 -39 -21 -4 -16 -9 -35 -12 -44 -3 -13 5 -19 33 -27 36 -9 35 -10 -29 -11 l-68 -1 0 180 0 180 -80 0 -80 0 0 -180 0 -180 -120 0 c-66 0 -120 -3 -120 -7 0 -12 83 -114 101 -124 24 -13 569 -12 569 1 0 6 -4 10 -9 10 -6 0 -24 20 -42 45 -18 24 -40 47 -51 50 -26 9 -22 25 7 25 14 0 25 -4 25 -10 0 -5 7 -10 15 -10 8 0 15 5 15 10 0 6 15 10 33 10 49 0 94 32 106 77 6 21 11 93 11 161 l0 122 -70 0 c-57 0 -70 -3 -70 -16 0 -13 -5 -12 -34 5 -37 23 -99 27 -131 9z m149 -94 c10 -4 16 -18 16 -35 0 -25 -4 -29 -29 -29 -16 0 -36 3 -45 6 -16 6 -22 45 -9 57 8 9 46 9 67 1z"/>
 <path d="M860 340 l0 -180 70 0 c63 0 70 2 70 20 0 25 2 25 42 0 32 -20 99 -27 133 -14 36 14 45 58 45 209 l0 145 -65 0 -64 0 -3 -117 c-3 -104 -5 -118 -21 -121 -10 -2 -29 4 -42 12 -24 16 -25 21 -25 121 l0 105 -70 0 -70 0 0 -180z"/>
 <path d="M1260 369 c0 -88 -4 -159 -11 -170 -17 -32 -48 -60 -80 -71 -23 -8 -29 -16 -29 -40 l0 -31 138 5 c104 3 145 9 170 22 57 30 72 51 72 104 0 56 -9 71 -47 87 l-28 12 32 7 c45 10 73 49 73 102 0 86 -65 124 -214 124 l-76 0 0 -151z m108 45 c13 -4 25 -17 29 -32 8 -33 -18 -52 -69 -52 l-38 0 0 45 c0 42 2 45 28 45 15 0 37 -3 50 -6z m0 -173 c8 -4 12 -19 10 -32 -2 -20 -9 -24 -45 -27 l-43 -3 0 35 c0 34 2 36 33 36 17 0 38 -4 45 -9z"/>
 <path d="M1580 400 c0 -97 3 -120 14 -120 12 0 13 -7 5 -32 -11 -39 4 -92 35 -126 26 -29 109 -75 87 -48 -8 9 -16 49 -19 92 -4 65 -8 77 -30 94 l-25 20 37 0 36 0 0 120 0 120 -70 0 -70 0 0 -120z"/>
 <path d="M1750 290 l0 -230 201 0 c157 0 199 3 193 12 -28 46 -77 107 -90 112 -9 3 -49 6 -90 6 l-75 0 3 28 3 27 113 3 114 3 -28 37 c-42 57 -52 62 -130 62 l-72 0 6 85 5 85 -77 0 -76 0 0 -230z"/>
 </g>
<g id="layer102" fill="#7ac298" stroke="none">
 <path d="M1665 116 c-18 -13 -16 -15 23 -35 38 -19 42 -20 33 -4 -5 10 -12 26 -15 36 -6 21 -16 21 -41 3z"/>
 </g>

</svg>