<?xml version="1.0" encoding="utf-8"?>
<!-- Generator: Adobe Illustrator 21.0.0, SVG Export Plug-In . SVG Version: 6.00 Build 0)  -->
<svg version="1.1" id="Layer_1" xmlns="http://www.w3.org/2000/svg" xmlns:xlink="http://www.w3.org/1999/xlink" x="0px" y="0px"
	 viewBox="0 0 1280 720" style="enable-background:new 0 0 1280 720;" xml:space="preserve">
<style type="text/css">
	.st0{fill:#229954;}
	.st1{font-family:'Gentona-Bold';}
	.st2{font-size:60px;}
	.st3{letter-spacing:7.1;}
	.st4{letter-spacing:8;}
	.st5{fill:#FFFF00;}
	.st6{fill:url(#SVGID_1_);}
</style>
<text transform="matrix(0.7 0 0 0.7 21.8354 499.4434)" class="st0 st1 st2 st3">tanzania</text>
<text transform="matrix(1 0 0 1 275.3032 499.4434)" class="st0 st1 st2 st4"> B</text>
<text transform="matrix(0.7 0 0 0.7 340.2827 499.4434)" class="st0 st1 st2 st3">iodiversity</text>
<text transform="matrix(1 0 0 1 649.1465 499.4434)" class="st0 st1 st2 st4"> I</text>
<text transform="matrix(0.7 0 0 0.7 694.6865 499.4434)" class="st0 st1 st2 st3">nformation</text>
<text transform="matrix(1 0 0 1 1016.4033 499.4434)" class="st0 st1 st2 st4"> F</text>
<text transform="matrix(0.7 0 0 0.7 1076.7617 499.4434)" class="st0 st1 st2 st3">acility</text>
<g>
	<path class="st0" d="M413.7,144.9L370,201.7c-10,13-25.5,20.6-41.9,20.6h-80.4v220.3h-92.1V222.3H15.9l43.8-56.8
		c10-13,25.5-20.6,41.9-20.6H413.7z"/>
	<path class="st0" d="M288.1,238.8c52.5-14.2,74.3-16.9,96.1-16.9c64.5,0,91.7,26.3,91.7,89v131.7h-79.7v-25.4
		c-16.5,18.7-35.2,29.4-58.7,29.4c-44.9,0-70.8-15.6-70.8-68.5c0-45.8,30.7-67.2,91.7-67.2h37.8c0-18.7-5.3-28-27.1-28
		c-15.6,0-38.7,3.1-69,9.3L288.1,238.8z M369.5,348.7c-17.8,0-28,4.9-28,19.1c0,12.9,9.3,20.9,23.1,20.9c12.9,0,23.1-5.8,31.6-12.9
		v-27.1H369.5z"/>
	<path class="st0" d="M849.3,301.5c23.6-9.3,38.3-26.3,38.3-52.5c0-49.8-38.3-77.9-106.3-77.9H663.7V206c28.7,2,46,13.7,56.2,30.1
		c7.4,11.8,11.1,26.1,12.9,40.8c1.1,9.2,1.5,18.6,1.5,27.7v138h50c77.4,0,120.6-26.7,120.6-73.9
		C904.9,332.7,886.6,311.3,849.3,301.5z M746.9,236.1h34.3c17.8,0,27.6,7.1,27.6,20.5c0,13.4-8,20.9-22.2,20.9h-39.6V236.1z
		 M746.9,330.5h39.6c20.9,0,32.5,8,32.5,22.2c0,15.6-12,24-33.8,24h-38.3V330.5z"/>
	<path class="st0" d="M944.9,301.8h-4.3c-0.8,7.1-2.2,20.3-1.5,26.7c0,0,4.4,3.5,5.6-2.2C944.7,326.3,943.8,316.6,944.9,301.8z
		 M948.2,301.8c-1.1,14.3-0.3,24-0.3,24.2l0,0.5l-0.1,0.5c-1.2,5.4-4.9,5.8-6.1,5.8c-2.4,0-4.4-1.5-4.7-1.7l-1.1-0.9l-0.1-1.4
		c-0.7-6.6,0.6-19.8,1.5-27.1h-13.8v140.8h83.2V301.8H948.2z"/>
	<path class="st0" d="M659.3,222.7c-2.8-0.2-5.7-0.3-8.7-0.3c0,0,0,0,0,0c-24.5,0-45.4,10.2-73.9,32.5v-28.9h-80.5v216.7h80.5V318
		c10.7-12,22.2-20,36.1-20c16,0,20,7.1,20,29.8v114.8h80.5v-138C713.3,249.9,698.2,225.7,659.3,222.7z"/>
	<path class="st5" d="M1016,170.3c-27.7,21.9-14.6,74.1-21.4,98.6c-6.7,24.5-44.7,29.2-44.7,29.2c1.7-45.3,29.2-86.5,30-87.8
		c-25.8,29.6-33.2,67.3-35,91.6c-1.1,14.7-0.2,24.5-0.2,24.5c-1.2,5.7-5.6,2.2-5.6,2.2c-0.7-6.4,0.7-19.6,1.5-26.7
		c0.3-2.8,0.6-4.7,0.6-4.7C897.6,207,1014.4,170.8,1016,170.3z"/>
	<linearGradient id="SVGID_1_" gradientUnits="userSpaceOnUse" x1="960.7514" y1="263.3265" x2="1010.4698" y2="137.3423">
		<stop  offset="0.2564" style="stop-color:#229954"/>
		<stop  offset="1" style="stop-color:#FFFFFF"/>
	</linearGradient>
	<path class="st6" d="M1016,170.3c-27.7,21.9-14.6,74.1-21.4,98.6c-6.7,24.5-44.7,29.2-44.7,29.2c1.7-45.3,29.2-86.5,30-87.8
		c-25.8,29.6-33.2,67.3-35,91.6c-1.1,14.7-0.2,24.5-0.2,24.5c-1.2,5.7-5.6,2.2-5.6,2.2c-0.7-6.4,0.7-19.6,1.5-26.7
		c0.3-2.8,0.6-4.7,0.6-4.7C897.6,207,1014.4,170.8,1016,170.3z"/>
	<path class="st0" d="M1113.2,276.9h-3.2v-35.3h72.8c16.7,0,32.4-7.9,42.3-21.3l36.5-49h-232.8v271.2h81.5v-76.2h-0.3V343h61
		c16.7,0,32.3-7.9,42.3-21.2l33.3-44.6h-133.4V276.9z"/>
</g>
</svg>
