<svg width="1100" height="300" xmlns="http://www.w3.org/2000/svg">
 <!-- Created with Method Draw - http://github.com/duopixel/Method-Draw/ -->

 <g>
  <title>background</title>
  <rect fill="none" id="canvas_background" height="302" width="1102" y="-1" x="-1"/>
  <g display="none" overflow="visible" y="0" x="0" height="100%" width="100%" id="canvasGrid">
   <rect fill="url(#gridpattern)" stroke-width="0" y="0" x="0" height="100%" width="100%"/>
  </g>
 </g>
 <g>
  <title>Layer 1</title>
  <style transform="matrix(0.01085069392704302,0,0,0.01085069392704302,0,0) " type="text/css">.st0{fill:#229954;}
	.st1{font-family:'Gentona-Bold';}
	.st2{font-size:60px;}
	.st3{letter-spacing:7.1;}
	.st4{letter-spacing:8;}
	.st5{fill:#229954;}
	.st6{fill:url(#SVGID_1_);}</style>
  <linearGradient stroke="null" transform="translate(-7.275957614183426e-12,1.9479155540466309) translate(10.898195266723633,-11.687493324279785) translate(-2.1796391010284424,0) translate(-21.796390533447266,-44.802059173583984) translate(396.6943054199219,-56.48955154418945) translate(-7.275957614183426e-12,1.9479155540466309) translate(2.1796391010284424,107.1353530883789) translate(-1457.130126953125,36.582672119140625) translate(26089.576171875,0) translate(0,18109.828125) " y2="137.3423" x2="1010.4698" y1="263.3265" x1="960.7514" gradientUnits="userSpaceOnUse" id="svg_5">
   <stop stroke="null" stop-color="#229954" offset="0.2564"/>
   <stop stroke="null" stop-color="#FFFFFF" offset="1"/>
  </linearGradient>
  <path stroke="null" id="svg_21" d="m649.099982,41.115847c-12.708526,11.242787 -6.698357,38.040663 -9.818139,50.61821c-3.073903,12.577547 -20.507983,14.990383 -20.507983,14.990383c0.779946,-23.255628 13.396714,-44.406442 13.763747,-45.073822c-11.836822,15.19573 -15.23188,34.549752 -16.057705,47.024625c-0.504671,7.546528 -0.091758,12.577547 -0.091758,12.577547c-0.55055,2.926205 -2.569233,1.129412 -2.569233,1.129412c-0.321154,-3.285563 0.321154,-10.062038 0.688187,-13.70696c0.137637,-1.437434 0.275275,-2.412836 0.275275,-2.412836c-20.003312,-46.305908 33.583542,-64.889876 34.317609,-65.146561z" class="st6"/>
  <text font-weight="bold" stroke="#000" xml:space="preserve" text-anchor="start" font-family="'Times New Roman', Times, serif" font-size="60" id="svg_24" y="286" x="4.5" stroke-width="0" fill="#007f3f">Tanzania Biodiversity Information Facility</text>
  <g id="svg_25">
   <path stroke="null" id="svg_15" d="m410.769824,57.076268l-20.049191,29.159375c-4.587916,6.673801 -11.699185,10.575407 -19.223366,10.575407l-36.886842,0l0,113.095251l-42.254703,0l0,-113.095251l-64.093181,0l20.09507,-29.159375c4.587916,-6.673801 11.699185,-10.575407 19.223366,-10.575407l143.188847,0z" class="st0"/>
   <path stroke="null" id="svg_16" d="m353.145603,105.281642c24.086557,-7.289844 34.088213,-8.675941 44.089869,-8.675941c29.592056,0 42.071186,13.501612 42.071186,45.689865l0,67.610733l-36.565688,0l0,-13.03958c-7.570061,9.600005 -16.149463,15.093057 -26.931065,15.093057c-20.599741,0 -32.482443,-8.008561 -32.482443,-35.165795c0,-23.512313 14.084901,-34.498415 42.071186,-34.498415l17.342321,0c0,-9.600005 -2.431595,-14.37434 -12.433251,-14.37434c-7.157148,0 -17.755233,1.591445 -31.656618,4.774334l-5.505499,-27.413919zm37.345633,56.419283c-8.16649,0 -12.846164,2.515509 -12.846164,9.805353c0,6.622464 4.266762,10.729418 10.598085,10.729418c5.918411,0 10.598085,-2.977542 14.497813,-6.622464l0,-13.912307l-12.249735,0z" class="st0"/>
   <path stroke="null" id="svg_17" d="m610.619428,137.469896c10.827481,-4.774334 17.571717,-13.501612 17.571717,-26.951887c0,-25.56579 -17.571717,-39.991466 -48.769543,-39.991466l-53.953888,0l0,17.916588c13.167318,1.026739 21.104412,7.033159 25.784086,15.452415c3.395058,6.057757 5.092586,13.398938 5.918411,20.945466c0.504671,4.722997 0.688187,9.548668 0.688187,14.220329l0,70.84496l22.939578,0c35.510467,0 55.330262,-13.70696 55.330262,-37.937989c0,-18.481294 -8.395886,-29.467396 -25.508811,-34.498415zm-46.980256,-33.57435l15.736551,0c8.16649,0 12.662647,3.644922 12.662647,10.52407c0,6.879148 -3.670332,10.729418 -10.185173,10.729418l-18.168146,0l0,-21.253488l-0.045879,0zm0,48.462059l18.168146,0c9.588744,0 14.910726,4.106954 14.910726,11.396798c0,8.008561 -5.505499,12.320863 -15.507155,12.320863l-17.571717,0l0,-23.71766z" class="st0"/>
   <path stroke="null" id="svg_18" d="m654.479902,137.623906l-1.972804,0c-0.367033,3.644922 -1.009341,10.421396 -0.688187,13.70696c0,0 2.018683,1.796792 2.569233,-1.129412c0,0 -0.412912,-4.979682 0.091758,-12.577547zm1.514012,0c-0.504671,7.341181 -0.137637,12.320863 -0.137637,12.423536l0,0.256685l-0.045879,0.256685c-0.55055,2.772194 -2.248079,2.977542 -2.798629,2.977542c-1.1011,0 -2.018683,-0.770054 -2.15632,-0.872728l-0.504671,-0.462032l-0.045879,-0.718717c-0.321154,-3.388237 0.275275,-10.164712 0.688187,-13.912307l-6.331324,0l0,72.282393l38.171458,0l0,-72.231057l-26.839306,0z" class="st0"/>
   <path stroke="null" id="svg_19" d="m523.449031,97.016397c-1.284616,-0.102674 -2.615112,-0.154011 -3.991487,-0.154011c0,0 0,0 0,0c-11.240393,0 -20.829137,5.236367 -33.904696,16.684501l0,-14.836372l-36.932721,0l0,111.247121l36.932721,0l0,-64.017148c4.90907,-6.160431 10.185173,-10.267385 16.562375,-10.267385c7.340665,0 9.175831,3.644922 9.175831,15.298404l0,58.934792l36.932721,0l0,-70.84496c0,-28.081299 -6.927753,-40.504836 -24.774744,-42.044943z" class="st0"/>
   <path stroke="null" id="svg_20" d="m687.099982,70.115847c-12.708526,11.242787 -6.698357,38.040663 -9.818139,50.61821c-3.073903,12.577547 -20.507983,14.990383 -20.507983,14.990383c0.779946,-23.255628 13.396714,-44.406442 13.763747,-45.073822c-11.836822,15.19573 -15.23188,34.549752 -16.057705,47.024625c-0.504671,7.546528 -0.091758,12.577547 -0.091758,12.577547c-0.55055,2.926205 -2.569233,1.129412 -2.569233,1.129412c-0.321154,-3.285563 0.321154,-10.062038 0.688187,-13.70696c0.137637,-1.437434 0.275275,-2.412836 0.275275,-2.412836c-20.003312,-46.305908 33.583542,-64.889876 34.317609,-65.146561z" class="st5"/>
   <path stroke="null" id="svg_22" d="m737.694522,124.841011l-1.468133,0l0,-18.121935l33.400026,0c7.661819,0 14.864847,-4.055617 19.406883,-10.934765l16.745892,-25.155094l-106.806676,0l0,139.225747l37.391512,0l0,-39.118739l-0.137637,0l0,-11.961504l27.986285,0c7.661819,0 14.818967,-4.055617 19.406883,-10.883429l15.277759,-22.89627l-61.202794,0l0,-0.154011z" class="st0"/>
  </g>
 </g>
</svg>